<svg width="32" height="32" viewBox="0 0 32 32" fill="none" xmlns="http://www.w3.org/2000/svg">
<rect width="32" height="32" rx="16" fill="#4174CB"/>
<path d="M5.33337 16.3333C5.33337 16.8856 5.78109 17.3333 6.33337 17.3333L21.56 17.3333L17.4918 21.4129C17.1022 21.8036 17.1027 22.436 17.4928 22.8261L17.9596 23.2929C18.3501 23.6834 18.9833 23.6834 19.3738 23.2929L26.6667 16L19.3738 8.70711C18.9833 8.31658 18.3501 8.31658 17.9596 8.70711L17.4928 9.17388C17.1027 9.56402 17.1023 10.1964 17.4918 10.5871L21.56 14.6667L6.33337 14.6667C5.78109 14.6667 5.33337 15.1144 5.33337 15.6667L5.33337 16.3333Z" fill="white"/>
</svg>
