<svg width="32" height="32" viewBox="0 0 32 32" fill="none" xmlns="http://www.w3.org/2000/svg">
<rect width="32" height="32" fill="#E5E5E5"/>
<g id="Index" clip-path="url(#clip0_229_3749)">
<rect width="1440" height="3961" transform="translate(-138 -1601)" fill="white"/>
<g id="Frame 885">
<g id="Frame 352">
<g id="Frame 351">
<g id="Frame 351_2">
<rect x="40" y="40" width="48" height="48" rx="24" transform="rotate(-180 40 40)" fill="#4174CB"/>
<g id="arrow / short_right">
<rect x="32" y="32" width="32" height="32" rx="16" transform="rotate(-180 32 32)" fill="#4174CB"/>
<path id="arrow / short_right_2" d="M26.6667 15.6667C26.6667 15.1144 26.219 14.6667 25.6667 14.6667L10.44 14.6667L14.5082 10.5871C14.8978 10.1964 14.8974 9.56402 14.5072 9.17388L14.0405 8.70711C13.6499 8.31658 13.0168 8.31658 12.6262 8.70711L5.33335 16L12.6262 23.2929C13.0168 23.6834 13.6499 23.6834 14.0405 23.2929L14.5072 22.8261C14.8974 22.436 14.8978 21.8036 14.5082 21.4129L10.44 17.3333L25.6667 17.3333C26.219 17.3333 26.6667 16.8856 26.6667 16.3333L26.6667 15.6667Z" fill="white"/>
</g>
</g>
</g>
</g>
</g>
</g>
<defs>
<clipPath id="clip0_229_3749">
<rect width="1440" height="3961" fill="white" transform="translate(-138 -1601)"/>
</clipPath>
</defs>
</svg>
