<svg width="80" height="80" viewBox="0 0 80 80" fill="none" xmlns="http://www.w3.org/2000/svg">
<circle cx="40" cy="40" r="40" fill="#4174CB"/>
<path d="M57.7401 50.0242L52.3201 40.6642C53.4292 38.6272 54.007 36.3435 54.0001 34.0242C54.0001 30.3111 52.5251 26.7502 49.8996 24.1247C47.2741 21.4992 43.7131 20.0242 40.0001 20.0242C36.2871 20.0242 32.7261 21.4992 30.1006 24.1247C27.4751 26.7502 26.0001 30.3111 26.0001 34.0242C25.9932 36.3435 26.571 38.6272 27.6801 40.6642L22.2601 50.0242C22.0842 50.3288 21.9918 50.6744 21.9921 51.0262C21.9925 51.3779 22.0856 51.7233 22.2621 52.0276C22.4385 52.3319 22.6921 52.5842 22.9973 52.7592C23.3024 52.9342 23.6483 53.0256 24.0001 53.0242H29.7401L32.6601 57.9442C32.7585 58.1072 32.8797 58.2554 33.0201 58.3842C33.3908 58.7415 33.8851 58.9421 34.4001 58.9442H34.6801C34.982 58.9028 35.2705 58.7931 35.5236 58.6232C35.7766 58.4534 35.9875 58.228 36.1401 57.9642L40.0001 51.3242L43.8601 58.0242C44.0149 58.2842 44.2268 58.5058 44.4797 58.672C44.7326 58.8383 45.0199 58.9451 45.3201 58.9842H45.6001C46.1219 58.9873 46.6244 58.7863 47.0001 58.4242C47.1346 58.3027 47.2493 58.161 47.3401 58.0042L50.2601 53.0842H56.0001C56.3525 53.0856 56.699 52.9938 57.0046 52.8182C57.3102 52.6426 57.5639 52.3894 57.7401 52.0842C57.927 51.7731 58.0257 51.4171 58.0257 51.0542C58.0257 50.6913 57.927 50.3352 57.7401 50.0242ZM34.3801 53.0842L32.6001 50.1042C32.4248 49.8085 32.1763 49.563 31.8785 49.3914C31.5808 49.2197 31.2438 49.1277 30.9001 49.1242H27.4401L30.3001 44.1642C32.2695 46.0619 34.7517 47.3413 37.4401 47.8442L34.3801 53.0842ZM40.0001 44.0242C38.0223 44.0242 36.0889 43.4377 34.4444 42.3389C32.7999 41.2401 31.5182 39.6783 30.7613 37.851C30.0044 36.0237 29.8064 34.0131 30.1922 32.0733C30.5781 30.1335 31.5305 28.3516 32.929 26.9531C34.3275 25.5546 36.1094 24.6022 38.0492 24.2163C39.989 23.8305 41.9997 24.0285 43.8269 24.7854C45.6542 25.5423 47.216 26.824 48.3148 28.4685C49.4136 30.113 50.0001 32.0464 50.0001 34.0242C50.0001 36.6763 48.9465 39.2199 47.0712 41.0952C45.1958 42.9706 42.6523 44.0242 40.0001 44.0242ZM49.1001 49.1242C48.7564 49.1277 48.4194 49.2197 48.1216 49.3914C47.8239 49.563 47.5754 49.8085 47.4001 50.1042L45.6201 53.0842L42.5801 47.7842C45.259 47.271 47.732 45.9928 49.7001 44.1042L52.5601 49.0642L49.1001 49.1242Z" fill="white"/>
</svg>
