<svg width="80" height="80" viewBox="0 0 80 80" fill="none" xmlns="http://www.w3.org/2000/svg">
<circle cx="40" cy="40" r="40" fill="#4174CB"/>
<path d="M54 30H48V28C48 25.8783 47.1571 23.8434 45.6569 22.3431C44.1566 20.8429 42.1217 20 40 20C37.8783 20 35.8434 20.8429 34.3431 22.3431C32.8429 23.8434 32 25.8783 32 28V30H26C25.4696 30 24.9609 30.2107 24.5858 30.5858C24.2107 30.9609 24 31.4696 24 32V54C24 55.5913 24.6321 57.1174 25.7574 58.2426C26.8826 59.3679 28.4087 60 30 60H50C51.5913 60 53.1174 59.3679 54.2426 58.2426C55.3679 57.1174 56 55.5913 56 54V32C56 31.4696 55.7893 30.9609 55.4142 30.5858C55.0391 30.2107 54.5304 30 54 30ZM36 28C36 26.9391 36.4214 25.9217 37.1716 25.1716C37.9217 24.4214 38.9391 24 40 24C41.0609 24 42.0783 24.4214 42.8284 25.1716C43.5786 25.9217 44 26.9391 44 28V30H36V28ZM52 54C52 54.5304 51.7893 55.0391 51.4142 55.4142C51.0391 55.7893 50.5304 56 50 56H30C29.4696 56 28.9609 55.7893 28.5858 55.4142C28.2107 55.0391 28 54.5304 28 54V34H32V36C32 36.5304 32.2107 37.0391 32.5858 37.4142C32.9609 37.7893 33.4696 38 34 38C34.5304 38 35.0391 37.7893 35.4142 37.4142C35.7893 37.0391 36 36.5304 36 36V34H44V36C44 36.5304 44.2107 37.0391 44.5858 37.4142C44.9609 37.7893 45.4696 38 46 38C46.5304 38 47.0391 37.7893 47.4142 37.4142C47.7893 37.0391 48 36.5304 48 36V34H52V54Z" fill="white"/>
</svg>
