<svg width="80" height="80" viewBox="0 0 80 80" fill="none" xmlns="http://www.w3.org/2000/svg">
<circle cx="40" cy="40" r="40" fill="#4174CB"/>
<path d="M58.7599 27.52C58.6917 27.2646 58.5734 27.0253 58.4121 26.8159C58.2507 26.6065 58.0495 26.4311 57.8199 26.3L47.4199 20.3C47.1929 20.1669 46.9418 20.08 46.681 20.0442C46.4203 20.0083 46.155 20.0243 45.9005 20.0912C45.6459 20.1581 45.4071 20.2746 45.1976 20.434C44.9882 20.5933 44.8123 20.7925 44.6799 21.02L39.9999 29.14L35.3199 21.02C35.1876 20.7925 35.0117 20.5933 34.8022 20.434C34.5928 20.2746 34.354 20.1581 34.0994 20.0912C33.8449 20.0243 33.5796 20.0083 33.3189 20.0442C33.0581 20.08 32.807 20.1669 32.5799 20.3L22.1799 26.3C21.9504 26.4311 21.7491 26.6065 21.5878 26.8159C21.4265 27.0253 21.3082 27.2646 21.2399 27.52C21.1076 28.0269 21.1794 28.5655 21.4399 29.02L29.4399 42.68C28.5474 44.3151 28.054 46.138 27.9999 48C27.9952 49.8166 28.4029 51.6105 29.1924 53.2466C29.9818 54.8826 31.1325 56.3181 32.5575 57.4447C33.9824 58.5714 35.6446 59.3598 37.4187 59.7505C39.1927 60.1413 41.0323 60.1242 42.7988 59.7005C44.5653 59.2768 46.2125 58.4575 47.6163 57.3046C49.0201 56.1516 50.1437 54.6949 50.9026 53.0445C51.6615 51.394 52.0358 49.5928 51.9972 47.7766C51.9586 45.9605 51.5082 44.1767 50.6799 42.56L58.4799 29.04C58.6251 28.8179 58.7246 28.5691 58.7727 28.3081C58.8208 28.0472 58.8164 27.7793 58.7599 27.52ZM25.9999 28.76L32.9199 24.76L39.3599 36C36.6148 36.1696 34.0135 37.2864 31.9999 39.16L25.9999 28.76ZM39.9999 56C37.8782 56 35.8434 55.1571 34.3431 53.6568C32.8428 52.1566 31.9999 50.1217 31.9999 48C31.9999 45.8783 32.8428 43.8434 34.3431 42.3431C35.8434 40.8428 37.8782 40 39.9999 40C42.1217 40 44.1565 40.8428 45.6568 42.3431C47.1571 43.8434 47.9999 45.8783 47.9999 48C47.9999 50.1217 47.1571 52.1566 45.6568 53.6568C44.1565 55.1571 42.1217 56 39.9999 56ZM47.9999 39.1C46.9141 38.1082 45.6524 37.3281 44.2799 36.8L42.3199 33.14L47.1599 24.76L54.0799 28.76L47.9999 39.1Z" fill="white"/>
</svg>
