<?xml version="1.0" encoding="iso-8859-1"?>
<!-- Uploaded to: SVG Repo, www.svgrepo.com, Generator: SVG Repo Mixer Tools -->
<svg height="800px" width="800px" version="1.1" id="Layer_1" xmlns="http://www.w3.org/2000/svg" xmlns:xlink="http://www.w3.org/1999/xlink" 
	 viewBox="0 0 512 512" xml:space="preserve">
<g transform="translate(0 1)">
	<path style="fill:#FFE100;" d="M187.733,348.867V485.4c0,9.387,5.12,17.067,11.947,17.067h95.573
		c6.827,0,11.947-7.68,11.947-17.067V348.867H187.733z"/>
	<path style="fill:#FFFFFF;" d="M187.733,485.4V348.867h-25.6V485.4c0,9.387,7.68,17.067,17.067,17.067h20.48
		C192.853,502.467,187.733,494.787,187.733,485.4"/>
	<path style="fill:#FFA800;" d="M307.2,348.867V485.4c0,9.387-5.12,17.067-11.947,17.067h20.48c9.387,0,17.067-7.68,17.067-17.067
		V348.867H307.2z"/>
	<path style="fill:#63D3FD;" d="M307.2,348.867V298.52c-11.093-15.36-17.92-36.693-17.92-60.587c0-23.893,6.827-45.227,17.92-60.587
		v-41.813H187.733v41.813c11.093,15.36,17.92,36.693,17.92,60.587s-6.827,45.227-17.92,60.587v50.347H307.2z"/>
	<path style="fill:#FFFFFF;" d="M205.653,237.933c0-23.893-6.827-45.227-17.92-60.587v-41.813h-25.6v41.813
		c16.213,15.36,25.6,36.693,25.6,60.587s-9.387,45.227-25.6,60.587v50.347h25.6V298.52
		C198.827,283.16,205.653,261.827,205.653,237.933"/>
	<path style="fill:#3DB9F9;" d="M332.8,135.533h-25.6v41.813c-11.093,15.36-17.92,36.693-17.92,60.587s6.827,45.227,17.92,60.587
		v50.347h25.6V298.52c-16.213-15.36-25.6-36.693-25.6-60.587c0-23.893,9.387-45.227,25.6-60.587V135.533z"/>
	<path style="fill:#FFE100;" d="M307.2,135.533H187.733V101.4c0-9.387,7.68-17.067,17.067-17.067h85.333
		c9.387,0,17.067,7.68,17.067,17.067V135.533z"/>
	<path style="fill:#FFFFFF;" d="M204.8,84.333h-25.6c-9.387,0-17.067,7.68-17.067,17.067v34.133h25.6V101.4
		C187.733,92.013,195.413,84.333,204.8,84.333"/>
	<path style="fill:#FFA800;" d="M315.733,84.333h-25.6c9.387,0,17.067,7.68,17.067,17.067v34.133h25.6V101.4
		C332.8,92.013,325.12,84.333,315.733,84.333"/>
	<g>
		<path style="fill:#FFE100;" d="M332.8,348.867V485.4c0,9.387-5.12,17.067-11.947,17.067h20.48c9.387,0,17.067-7.68,17.067-17.067
			V348.867H332.8z"/>
		<path style="fill:#FFE100;" d="M358.4,135.533h-25.6v41.813c-11.093,15.36-17.92,36.693-17.92,60.587s6.827,45.227,17.92,60.587
			v50.347h25.6V298.52c-16.213-15.36-25.6-36.693-25.6-60.587c0-23.893,9.387-45.227,25.6-60.587V135.533z"/>
		<path style="fill:#FFE100;" d="M341.333,84.333h-25.6c9.387,0,17.067,7.68,17.067,17.067v34.133h25.6V101.4
			C358.4,92.013,350.72,84.333,341.333,84.333"/>
	</g>
	<path style="fill:#FDCC00;" d="M264.533,84.333H230.4v-25.6c0-9.387,7.68-17.067,17.067-17.067h3.413
		c7.68,0,13.653,5.973,13.653,12.8V84.333z"/>
	<path style="fill:#FFFFFF;" d="M247.467,41.667H230.4c-9.387,0-17.067,7.68-17.067,17.067v25.6H230.4v-25.6
		C230.4,49.347,238.08,41.667,247.467,41.667"/>
	<path style="fill:#FFA800;" d="M267.947,41.667H250.88c7.68,0,13.653,5.973,13.653,12.8v29.867H281.6V54.467
		C281.6,47.64,275.627,41.667,267.947,41.667"/>
	<path style="fill:#FFE100;" d="M293.547,41.667H276.48c7.68,0,13.653,5.973,13.653,12.8v29.867H307.2V54.467
		C307.2,47.64,301.227,41.667,293.547,41.667"/>
	<path style="fill:#FDCC00;" d="M264.533,41.667H230.4V20.333c0-6.827,5.12-12.8,12.8-12.8h9.387c5.973,0,11.947,5.973,11.947,12.8
		V41.667z"/>
	<path d="M332.8,144.067H162.133c-5.12,0-8.533-3.413-8.533-8.533V101.4c0-14.507,11.093-25.6,25.6-25.6h136.533
		c14.507,0,25.6,11.093,25.6,25.6v34.133C341.333,140.653,337.067,144.067,332.8,144.067z M170.667,127h153.6v-25.6
		c0-5.12-3.413-8.533-8.533-8.533H179.2c-5.12,0-8.533,3.413-8.533,8.533V127z"/>
	<path d="M281.6,92.867h-68.267c-5.12,0-8.533-3.413-8.533-8.533V41.667c0-5.12,3.413-8.533,8.533-8.533H268.8
		c11.093,0,21.333,9.387,21.333,21.333v29.867C290.133,89.453,285.867,92.867,281.6,92.867z M221.867,75.8h51.2V54.467
		c0-2.56-2.56-4.267-5.12-4.267h-46.08V75.8z"/>
	<path d="M264.533,50.2H230.4c-5.12,0-8.533-3.413-8.533-8.533V20.333C221.867,8.387,231.253-1,243.2-1h9.387
		c11.093,0,20.48,9.387,20.48,21.333v21.333C273.067,46.787,268.8,50.2,264.533,50.2z M238.933,33.133H256v-12.8
		c0-2.56-1.707-4.267-4.267-4.267h-9.387c-1.707,0-3.413,1.707-3.413,4.267V33.133z"/>
	<path d="M332.8,357.4H162.133c-5.12,0-8.533-3.413-8.533-8.533V298.52c0-2.56,0.853-4.267,2.56-5.973
		c14.507-14.507,23.04-34.133,23.04-54.613s-8.533-40.107-23.04-54.613c-1.707-1.707-2.56-4.267-2.56-5.973v-41.813
		c0-5.12,3.413-8.533,8.533-8.533H332.8c5.12,0,8.533,3.413,8.533,8.533v41.813c0,2.56-0.853,4.267-2.56,5.973
		c-14.507,14.507-23.04,34.133-23.04,54.613s8.533,40.107,23.04,54.613c1.707,1.707,2.56,3.413,2.56,5.973v50.347
		C341.333,353.987,337.067,357.4,332.8,357.4z M170.667,340.333h153.6v-38.4c-16.213-17.92-25.6-40.107-25.6-64.853
		s9.387-46.933,25.6-64.853v-28.16h-153.6v29.013c16.213,17.92,25.6,40.107,25.6,64.853s-9.387,46.933-25.6,64.853V340.333z"/>
	<path d="M315.733,511H179.2c-14.507,0-25.6-11.093-25.6-25.6v-42.667c0-5.12,3.413-8.533,8.533-8.533
		c5.12,0,8.533,3.413,8.533,8.533V485.4c0,5.12,3.413,8.533,8.533,8.533h136.533c5.12,0,8.533-3.413,8.533-8.533v-128h-153.6v17.067
		c0,5.12-3.413,8.533-8.533,8.533c-5.12,0-8.533-3.413-8.533-8.533v-25.6c0-5.12,3.413-8.533,8.533-8.533H332.8
		c5.12,0,8.533,3.413,8.533,8.533V485.4C341.333,499.907,329.387,511,315.733,511z"/>
	<path d="M170.667,408.6c0-5.12-3.413-8.533-8.533-8.533c-5.12,0-8.533,3.413-8.533,8.533c0,5.12,3.413,8.533,8.533,8.533
		C167.253,417.133,170.667,413.72,170.667,408.6"/>
	<path d="M230.4,297.667c-1.707,0-3.413-0.853-5.12-1.707c-3.413-2.56-5.12-7.68-1.707-11.947L256,237.933h-34.133
		c-3.413,0-5.973-1.707-7.68-5.12s-0.853-6.827,0.853-9.387l42.667-51.2c3.413-3.413,8.533-4.267,11.947-0.853
		s4.267,8.533,0.853,11.947l-30.72,37.547h33.28c3.413,0,5.973,1.707,7.68,4.267s0.853,5.973-0.853,8.533L237.227,293.4
		C235.52,296.813,232.96,297.667,230.4,297.667z"/>
</g>
</svg>