<?xml version="1.0" encoding="iso-8859-1"?>
<!-- Uploaded to: SVG Repo, www.svgrepo.com, Generator: SVG Repo Mixer Tools -->
<svg height="800px" width="800px" version="1.1" id="Layer_1" xmlns="http://www.w3.org/2000/svg" xmlns:xlink="http://www.w3.org/1999/xlink" 
	 viewBox="0 0 512.001 512.001" xml:space="preserve">
<g>
	<polygon style="fill:#315C7C;" points="87.912,13.205 157.948,83.242 143.942,143.941 83.243,157.947 13.206,87.911 	"/>
	<polygon style="fill:#315C7C;" points="424.089,498.793 354.052,428.756 368.059,368.058 428.757,354.051 498.794,424.088 	"/>
</g>
<path style="fill:#20B0B7;" d="M50.559,461.44L50.559,461.44c-32.445-32.445-37.045-83.452-10.927-121.178l34.824-50.301
	c58.296-84.206,131.301-157.21,215.506-215.506l50.301-34.824c37.726-26.118,88.733-21.518,121.178,10.927l0,0
	c32.445,32.445,37.045,83.452,10.927,121.178l-34.824,50.301c-58.296,84.206-131.301,157.21-215.506,215.506l-50.301,34.824
	C134.011,498.485,83.004,493.885,50.559,461.44z"/>
<ellipse transform="matrix(0.7071 -0.7071 0.7071 0.7071 -106.0419 256.0042)" style="fill:#28CC9E;" cx="256.003" cy="256.006" rx="79.237" ry="52.825"/>
<path d="M406.65,179.797c2.435,1.948,5.349,2.895,8.242,2.895c3.875,0,7.712-1.697,10.321-4.956c0.022-0.028,0.046-0.058,0.07-0.088
	c4.485-5.693,3.543-13.948-2.125-18.483c-5.696-4.557-14.005-3.633-18.563,2.063c-0.028,0.034-0.055,0.07-0.083,0.106
	C400.043,167.024,400.987,175.267,406.65,179.797z"/>
<path d="M420.038,130.816c-1.768,7.076,2.534,14.246,9.612,16.013c1.075,0.269,2.151,0.398,3.212,0.398
	c5.916,0,11.303-4.007,12.802-10.009c5.8-23.21,1.2-44.447-12.619-58.265c-5.157-5.157-13.519-5.157-18.676,0
	s-5.157,13.519,0,18.676C421.469,104.729,423.534,116.824,420.038,130.816z"/>
<path d="M321.368,190.632c-13.201-13.201-32.647-18.036-54.751-13.614c-20.167,4.033-40.519,15.5-57.307,32.289
	c-16.789,16.789-28.257,37.141-32.291,57.309c-4.421,22.107,0.413,41.551,13.613,54.751c10.01,10.012,23.611,15.211,39.242,15.211
	c4.98,0,10.168-0.528,15.509-1.597c20.167-4.033,40.519-15.5,57.307-32.289c16.789-16.789,28.257-37.141,32.291-57.309
	C339.402,223.276,334.567,203.831,321.368,190.632z M309.082,240.204c-3.023,15.109-11.924,30.668-25.067,43.81l0,0
	c-13.143,13.143-28.701,22.044-43.81,25.067c-7.628,1.524-21.781,2.723-30.896-6.391c-9.114-9.114-7.916-23.268-6.391-30.895
	c3.023-15.109,11.924-30.668,25.067-43.81c13.143-13.143,28.701-22.044,43.81-25.067c2.742-0.548,6.326-1.054,10.218-1.054
	c6.933,0,14.84,1.607,20.678,7.446C311.805,218.421,310.607,232.577,309.082,240.204z"/>
<path d="M204.146,374.206l-49.765-16.588l-16.588-49.765c-2.306-6.92-9.788-10.657-16.705-8.353
	c-6.92,2.307-10.659,9.786-8.353,16.705l10.325,30.973l-30.973-10.325c-6.916-2.306-14.397,1.433-16.705,8.353
	c-2.307,6.919,1.433,14.397,8.353,16.705l49.765,16.588l16.588,49.765c1.845,5.535,6.997,9.034,12.526,9.034
	c1.384,0,2.793-0.221,4.178-0.681c6.92-2.307,10.659-9.786,8.353-16.705l-10.325-30.973l30.973,10.325
	c1.385,0.462,2.793,0.681,4.178,0.681c5.529,0,10.681-3.5,12.526-9.034C214.806,383.992,211.066,376.512,204.146,374.206z"/>
<path d="M508.133,414.75l-18.676-18.676c-5.157-5.156-13.519-5.156-18.678,0c-5.157,5.157-5.157,13.519,0,18.678l9.338,9.338
	l-56.029,56.029l-55.523-55.522l10.506-45.525l45.525-10.506l8.831,8.832c5.157,5.157,13.519,5.157,18.678,0
	c5.157-5.157,5.157-13.519,0-18.678l-14.007-14.007c-3.22-3.22-7.871-4.55-12.308-3.53l-53.566,12.362l-14.084-14.085
	c32.931-33.96,63.09-70.653,90.265-109.906l34.824-50.301c29.77-43.001,24.535-101.052-12.447-138.033
	C433.797,4.238,375.746-0.997,332.746,28.773l-50.301,34.824c-39.252,27.175-75.947,57.334-109.906,90.265l-14.084-14.084
	l12.362-53.566c1.023-4.436-0.31-9.087-3.53-12.308L97.25,3.867c-5.157-5.157-13.519-5.156-18.676,0L3.868,78.572
	c-5.157,5.157-5.157,13.519,0,18.676l70.037,70.037c2.505,2.505,5.877,3.868,9.338,3.868c0.989,0,1.984-0.111,2.97-0.338
	l53.566-12.362l14.084,14.084c-32.931,33.96-63.09,70.653-90.265,109.906l-34.824,50.301
	c-29.77,43.001-24.535,101.052,12.447,138.033c20.933,20.933,48.612,31.692,76.496,31.692c21.378,0,42.877-6.327,61.537-19.245
	l50.301-34.824c39.252-27.175,75.947-57.334,109.906-90.265l14.085,14.085l-12.362,53.566c-1.023,4.436,0.31,9.087,3.53,12.308
	l70.037,70.037c2.579,2.579,5.959,3.868,9.338,3.868c3.38,0,6.76-1.29,9.338-3.868l74.705-74.705
	C513.289,428.269,513.289,419.907,508.133,414.75z M31.883,87.911l56.029-56.029l55.523,55.522l-10.506,45.525l-45.525,10.506
	L31.883,87.911z M214.521,426.685l-50.301,34.824c-32.498,22.499-76.373,18.544-104.323-9.407
	c-27.95-27.95-31.906-71.824-9.408-104.323l34.824-50.301c28.632-41.358,60.677-79.796,95.883-115.074
	c0.214-0.188,0.431-0.37,0.635-0.573c0.203-0.203,0.386-0.421,0.573-0.634c35.278-35.207,73.716-67.25,115.074-95.884l50.301-34.824
	c14.106-9.766,30.349-14.547,46.508-14.547c21.072,0,41.995,8.134,57.813,23.954c27.95,27.95,31.906,71.824,9.408,104.323
	l-34.824,50.301C369.094,297.711,297.711,369.093,214.521,426.685z"/>
</svg>