<?xml version="1.0" encoding="iso-8859-1"?>
<!-- Uploaded to: SVG Repo, www.svgrepo.com, Generator: SVG Repo Mixer Tools -->
<!DOCTYPE svg PUBLIC "-//W3C//DTD SVG 1.1//EN" "http://www.w3.org/Graphics/SVG/1.1/DTD/svg11.dtd">
<svg fill="#000000" height="800px" width="800px" version="1.1" id="Capa_1" xmlns="http://www.w3.org/2000/svg" xmlns:xlink="http://www.w3.org/1999/xlink" 
	 viewBox="0 0 398.448 398.448" xml:space="preserve">
<g>
	<path d="M199.225,0C89.372,0,0,89.372,0,199.224s89.372,199.224,199.225,199.224s199.224-89.372,199.224-199.224
		S309.077,0,199.225,0z M199.225,386.448C95.988,386.448,12,302.46,12,199.224S95.988,12,199.225,12
		c103.235,0,187.224,83.988,187.224,187.224S302.46,386.448,199.225,386.448z"/>
	<path d="M199.225,111.935c-48.132,0-87.29,39.158-87.29,87.289c0,48.132,39.158,87.29,87.29,87.29
		c48.131,0,87.289-39.158,87.289-87.29C286.514,151.093,247.355,111.935,199.225,111.935z M199.225,274.514
		c-41.515,0-75.29-33.775-75.29-75.29s33.775-75.289,75.29-75.289s75.289,33.774,75.289,75.289S240.739,274.514,199.225,274.514z"/>
	<path d="M62.051,168.016c3.313,0,6-2.687,6-6s-2.687-6-6-6c-17.283,0-31.344,14.061-31.344,31.345v36.32
		c0,17.283,14.061,31.344,31.344,31.344c3.313,0,6-2.687,6-6s-2.687-6-6-6c-10.666,0-19.344-8.678-19.344-19.344v-36.32
		C42.707,176.694,51.385,168.016,62.051,168.016z"/>
	<path d="M336.397,156.016c-3.313,0-6,2.687-6,6s2.687,6,6,6c10.667,0,19.345,8.678,19.345,19.345v36.32
		c0,10.667-8.678,19.344-19.345,19.344c-3.313,0-6,2.687-6,6s2.687,6,6,6c17.283,0,31.345-14.061,31.345-31.344v-36.32
		C367.742,170.077,353.681,156.016,336.397,156.016z"/>
</g>
</svg>