<svg width="32" height="32" viewBox="0 0 32 32" fill="none" xmlns="http://www.w3.org/2000/svg">
<rect x="32" y="32" width="32" height="32" rx="16" transform="rotate(-180 32 32)" fill="white"/>
<path d="M26.6666 15.6667C26.6666 15.1144 26.2189 14.6667 25.6666 14.6667L10.44 14.6667L14.5082 10.5871C14.8978 10.1964 14.8973 9.56402 14.5072 9.17388L14.0404 8.70711C13.6499 8.31658 13.0167 8.31658 12.6262 8.70711L5.33329 16L12.6262 23.2929C13.0167 23.6834 13.6499 23.6834 14.0404 23.2929L14.5072 22.8261C14.8973 22.436 14.8977 21.8036 14.5082 21.4129L10.44 17.3333L25.6666 17.3333C26.2189 17.3333 26.6666 16.8856 26.6666 16.3333L26.6666 15.6667Z" fill="#153E84"/>
</svg>
