<?xml version="1.0" encoding="iso-8859-1"?>
<!-- Uploaded to: SVG Repo, www.svgrepo.com, Generator: SVG Repo Mixer Tools -->
<svg height="800px" width="800px" version="1.1" id="Layer_1" xmlns="http://www.w3.org/2000/svg" xmlns:xlink="http://www.w3.org/1999/xlink" 
	 viewBox="0 0 512 512" xml:space="preserve">
<circle style="fill:#00DFC1;" cx="256" cy="255.996" r="255.996"/>
<path style="fill:#00B5A3;" d="M511.99,257.07l-57.937-57.937c0,0-6.256-1.933-17.633-4.75L319.257,77.288
	c-15.78-16.993-38.291-27.653-63.254-27.653c-47.612,0-86.348,38.735-86.348,86.347v41.845
	c-67.347,7.597-111.702,21.307-111.702,21.307l83.532,234.496l75.398,75.398c12.755,1.956,25.818,2.972,39.12,2.972
	C397.031,512,511.411,397.963,511.99,257.07z"/>
<path style="fill:#FF3C62;" d="M256.001,172.902c-113.199,0-198.048,26.232-198.048,26.232l83.532,234.496h229.036l83.532-234.496
	C454.053,199.135,369.201,172.902,256.001,172.902z"/>
<path style="fill:#FF0335;" d="M454.053,199.135c0,0-84.853-26.232-198.052-26.232H256v260.728h114.521L454.053,199.135z"/>
<path style="fill:#FFFFFF;" d="M342.351,200.331v-64.349c0-47.612-38.735-86.347-86.348-86.347
	c-47.612,0-86.348,38.735-86.348,86.347v64.349c-5.945,0.973-10.525,6.151-10.525,12.36v22.796c0,6.896,5.642,12.539,12.539,12.539
	h13.737c6.896,0,12.539-5.642,12.539-12.539v-22.796c0-6.21-4.58-11.388-10.526-12.361v-64.349
	c0-37.817,30.767-68.584,68.585-68.584s68.585,30.767,68.585,68.584v64.349c-5.946,0.972-10.526,6.15-10.526,12.361v22.796
	c0,6.896,5.642,12.539,12.539,12.539h13.737c6.896,0,12.539-5.642,12.539-12.539v-22.796
	C352.876,206.482,348.297,201.304,342.351,200.331z"/>
<path style="fill:#E1E1E3;" d="M342.351,200.331v-64.349c0-47.612-38.735-86.347-86.348-86.347c-0.001,0-0.002,0-0.003,0v17.763
	c0.001,0,0.002,0,0.003,0c37.817,0,68.585,30.767,68.585,68.584v64.349c-5.946,0.972-10.526,6.15-10.526,12.361v22.796
	c0,6.896,5.642,12.539,12.539,12.539h13.737c6.896,0,12.539-5.642,12.539-12.539v-22.796
	C352.876,206.482,348.297,201.304,342.351,200.331z"/>
<path style="fill:#FFFFFF;" d="M340.451,326.186c0-8.782-12.589-16.6-32.179-21.65c10.282-17.423,13.656-31.852,7.445-38.063
	c-6.21-6.21-20.64-2.836-38.063,7.445c-5.05-19.589-12.868-32.179-21.65-32.179c-8.782,0-16.6,12.589-21.65,32.179
	c-17.423-10.282-31.852-13.656-38.063-7.445c-6.21,6.21-2.836,20.64,7.445,38.063c-19.589,5.05-32.179,12.868-32.179,21.65
	c0,8.782,12.589,16.6,32.179,21.65c-10.282,17.423-13.656,31.852-7.445,38.063c6.211,6.21,20.64,2.836,38.063-7.445
	c5.05,19.589,12.868,32.179,21.65,32.179c8.782,0,16.6-12.589,21.65-32.179c17.423,10.282,31.852,13.656,38.063,7.445
	c6.21-6.21,2.836-20.64-7.445-38.063C327.861,342.786,340.451,334.969,340.451,326.186z"/>
<path style="fill:#E1E1E3;" d="M256.003,410.633c8.782,0,16.6-12.589,21.65-32.179c17.423,10.282,31.853,13.656,38.063,7.445
	c6.21-6.211,2.836-20.64-7.445-38.063c19.589-5.05,32.179-12.868,32.179-21.65c0-8.782-12.589-16.6-32.179-21.65
	c10.282-17.423,13.656-31.852,7.445-38.063c-6.21-6.21-20.64-2.836-38.063,7.445c-5.05-19.589-12.868-32.179-21.65-32.179
	c-0.001,0-0.002,0-0.003,0v168.893C256.001,410.633,256.002,410.633,256.003,410.633z"/>
<circle style="fill:#394CE2;" cx="256" cy="326.192" r="35.342"/>
<path style="fill:#1B2DDD;" d="M256.003,290.844c-0.001,0-0.002,0-0.003,0v70.684c0.001,0,0.002,0,0.003,0
	c19.518,0,35.342-15.824,35.342-35.342C291.345,306.667,275.523,290.844,256.003,290.844z"/>
</svg>