<svg width="80" height="80" viewBox="0 0 80 80" fill="none" xmlns="http://www.w3.org/2000/svg">
<circle cx="40" cy="40" r="40" fill="#4174CB"/>
<path d="M41.42 48.58L41.12 48.34C41.0085 48.2643 40.8874 48.2038 40.76 48.16L40.4 48C40.0756 47.9322 39.7395 47.946 39.4218 48.0403C39.1042 48.1346 38.8149 48.3063 38.58 48.54C38.4033 48.7344 38.2613 48.9576 38.16 49.2C38.0086 49.5644 37.9685 49.9654 38.0445 50.3526C38.1206 50.7398 38.3094 51.0959 38.5874 51.3759C38.8653 51.656 39.2199 51.8476 39.6065 51.9267C39.9931 52.0057 40.3944 51.9686 40.76 51.82C40.999 51.704 41.221 51.556 41.42 51.38C41.6975 51.0988 41.8855 50.7416 41.9603 50.3536C42.035 49.9656 41.9932 49.5642 41.84 49.2C41.7403 48.9687 41.5978 48.7584 41.42 48.58ZM48 20H32C30.4087 20 28.8826 20.6321 27.7574 21.7574C26.6321 22.8826 26 24.4087 26 26V54C26 55.5913 26.6321 57.1174 27.7574 58.2426C28.8826 59.3679 30.4087 60 32 60H48C49.5913 60 51.1174 59.3679 52.2426 58.2426C53.3679 57.1174 54 55.5913 54 54V26C54 24.4087 53.3679 22.8826 52.2426 21.7574C51.1174 20.6321 49.5913 20 48 20ZM50 54C50 54.5304 49.7893 55.0391 49.4142 55.4142C49.0391 55.7893 48.5304 56 48 56H32C31.4696 56 30.9609 55.7893 30.5858 55.4142C30.2107 55.0391 30 54.5304 30 54V26C30 25.4696 30.2107 24.9609 30.5858 24.5858C30.9609 24.2107 31.4696 24 32 24H48C48.5304 24 49.0391 24.2107 49.4142 24.5858C49.7893 24.9609 50 25.4696 50 26V54Z" fill="white"/>
</svg>
