<svg width="80" height="80" viewBox="0 0 80 80" fill="none" xmlns="http://www.w3.org/2000/svg">
<circle cx="40" cy="40" r="40" fill="#4174CB"/>
<path d="M30 44H34C34.5304 44 35.0391 43.7893 35.4142 43.4142C35.7893 43.0391 36 42.5304 36 42C36 41.4696 35.7893 40.9609 35.4142 40.5858C35.0391 40.2107 34.5304 40 34 40H30C29.4696 40 28.9609 40.2107 28.5858 40.5858C28.2107 40.9609 28 41.4696 28 42C28 42.5304 28.2107 43.0391 28.5858 43.4142C28.9609 43.7893 29.4696 44 30 44ZM42 48H30C29.4696 48 28.9609 48.2107 28.5858 48.5858C28.2107 48.9609 28 49.4696 28 50C28 50.5304 28.2107 51.0391 28.5858 51.4142C28.9609 51.7893 29.4696 52 30 52H42C42.5304 52 43.0391 51.7893 43.4142 51.4142C43.7893 51.0391 44 50.5304 44 50C44 49.4696 43.7893 48.9609 43.4142 48.5858C43.0391 48.2107 42.5304 48 42 48ZM54 20H26C24.4087 20 22.8826 20.6321 21.7574 21.7574C20.6321 22.8826 20 24.4087 20 26V54C20 55.5913 20.6321 57.1174 21.7574 58.2426C22.8826 59.3679 24.4087 60 26 60H54C55.5913 60 57.1174 59.3679 58.2426 58.2426C59.3679 57.1174 60 55.5913 60 54V26C60 24.4087 59.3679 22.8826 58.2426 21.7574C57.1174 20.6321 55.5913 20 54 20ZM44 24V30.58L40.98 28.9C40.676 28.7245 40.3311 28.6321 39.98 28.6321C39.6289 28.6321 39.284 28.7245 38.98 28.9L36 30.58V24H44ZM56 54C56 54.5304 55.7893 55.0391 55.4142 55.4142C55.0391 55.7893 54.5304 56 54 56H26C25.4696 56 24.9609 55.7893 24.5858 55.4142C24.2107 55.0391 24 54.5304 24 54V26C24 25.4696 24.2107 24.9609 24.5858 24.5858C24.9609 24.2107 25.4696 24 26 24H32V34C32.0021 34.349 32.0955 34.6914 32.2709 34.9932C32.4464 35.2949 32.6977 35.5455 33 35.72C33.304 35.8955 33.6489 35.9879 34 35.9879C34.3511 35.9879 34.696 35.8955 35 35.72L40 32.94L45.02 35.74C45.3189 35.9094 45.6564 35.9989 46 36C46.5304 36 47.0391 35.7893 47.4142 35.4142C47.7893 35.0391 48 34.5304 48 34V24H54C54.5304 24 55.0391 24.2107 55.4142 24.5858C55.7893 24.9609 56 25.4696 56 26V54Z" fill="white"/>
</svg>
