<svg width="80" height="80" viewBox="0 0 80 80" fill="none" xmlns="http://www.w3.org/2000/svg">
<circle cx="40" cy="40" r="40" fill="#4174CB"/>
<path fill-rule="evenodd" clip-rule="evenodd" d="M35.4142 43.4142C35.0391 43.7893 34.5304 44 34 44H30C29.4696 44 28.9609 43.7893 28.5858 43.4142C28.2107 43.0391 28 42.5304 28 42C28 41.4696 28.2107 40.9609 28.5858 40.5858C28.9609 40.2107 29.4696 40 30 40H34C34.5304 40 35.0391 40.2107 35.4142 40.5858C35.7893 40.9609 36 41.4696 36 42C36 42.5304 35.7893 43.0391 35.4142 43.4142ZM28.5858 48.5858C28.9609 48.2107 29.4696 48 30 48H42C42.5304 48 43.0391 48.2107 43.4142 48.5858C43.7893 48.9609 44 49.4696 44 50C44 50.5304 43.7893 51.0391 43.4142 51.4142C43.0391 51.7893 42.5304 52 42 52H30C29.4696 52 28.9609 51.7893 28.5858 51.4142C28.2107 51.0391 28 50.5304 28 50C28 49.4696 28.2107 48.9609 28.5858 48.5858ZM26 20H54C55.5913 20 57.1174 20.6321 58.2426 21.7574C59.3679 22.8826 60 24.4087 60 26V54C60 55.5913 59.3679 57.1174 58.2426 58.2426C57.1174 59.3679 55.5913 60 54 60H26C24.4087 60 22.8826 59.3679 21.7574 58.2426C20.6321 57.1174 20 55.5913 20 54V26C20 24.4087 20.6321 22.8826 21.7574 21.7574C22.8826 20.6321 24.4087 20 26 20ZM50 24H54C54.5304 24 55.0391 24.2107 55.4142 24.5858C55.7893 24.9609 56 25.4696 56 26V54C56 54.5304 55.7893 55.0391 55.4142 55.4142C55.0391 55.7893 54.5304 56 54 56H26C25.4696 56 24.9609 55.7893 24.5858 55.4142C24.2107 55.0391 24 54.5304 24 54V26C24 25.4696 24.2107 24.9609 24.5858 24.5858C24.9609 24.2107 25.4696 24 26 24H32H36H50Z" fill="white"/>
<path d="M50 24V29.6522C50 29.8362 50.2274 29.9226 50.3495 29.7851L51.6915 28.2745C51.7798 28.1751 51.9386 28.1879 52.0099 28.3L53.6312 30.8514C53.7386 31.0203 54 30.9443 54 30.7441V24H50Z" fill="white"/>
</svg>
