<svg width="80" height="80" viewBox="0 0 80 80" fill="none" xmlns="http://www.w3.org/2000/svg">
<circle cx="40" cy="40" r="40" fill="#4174CB"/>
<path d="M40.6 39.9642C41.6672 39.0404 42.5231 37.8979 43.1097 36.6142C43.6964 35.3305 44 33.9356 44 32.5242C44 29.872 42.9464 27.3285 41.0711 25.4531C39.1957 23.5777 36.6522 22.5242 34 22.5242C31.3478 22.5242 28.8043 23.5777 26.9289 25.4531C25.0536 27.3285 24 29.872 24 32.5242C24 33.9356 24.3036 35.3305 24.8903 36.6142C25.4769 37.8979 26.3328 39.0404 27.4 39.9642C24.6003 41.2319 22.2249 43.2792 20.558 45.8613C18.891 48.4433 18.0029 51.4508 18 54.5242C18 55.0546 18.2107 55.5633 18.5858 55.9384C18.9609 56.3135 19.4696 56.5242 20 56.5242C20.5304 56.5242 21.0391 56.3135 21.4142 55.9384C21.7893 55.5633 22 55.0546 22 54.5242C22 51.3416 23.2643 48.2893 25.5147 46.0389C27.7652 43.7885 30.8174 42.5242 34 42.5242C37.1826 42.5242 40.2348 43.7885 42.4853 46.0389C44.7357 48.2893 46 51.3416 46 54.5242C46 55.0546 46.2107 55.5633 46.5858 55.9384C46.9609 56.3135 47.4696 56.5242 48 56.5242C48.5304 56.5242 49.0391 56.3135 49.4142 55.9384C49.7893 55.5633 50 55.0546 50 54.5242C49.9971 51.4508 49.109 48.4433 47.442 45.8613C45.7751 43.2792 43.3997 41.2319 40.6 39.9642ZM34 38.5242C32.8133 38.5242 31.6533 38.1723 30.6666 37.513C29.6799 36.8537 28.9108 35.9166 28.4567 34.8203C28.0026 33.7239 27.8838 32.5175 28.1153 31.3536C28.3468 30.1897 28.9182 29.1206 29.7574 28.2815C30.5965 27.4424 31.6656 26.871 32.8295 26.6395C33.9933 26.4079 35.1997 26.5268 36.2961 26.9809C37.3925 27.435 38.3295 28.2041 38.9888 29.1907C39.6481 30.1774 40 31.3375 40 32.5242C40 34.1155 39.3679 35.6416 38.2426 36.7668C37.1174 37.892 35.5913 38.5242 34 38.5242ZM53.48 39.1642C54.7599 37.7228 55.596 35.9423 55.8876 34.0368C56.1792 32.1314 55.9139 30.1823 55.1235 28.4242C54.3332 26.666 53.0516 25.1738 51.4329 24.127C49.8143 23.0803 47.9276 22.5237 46 22.5242C45.4696 22.5242 44.9609 22.7349 44.5858 23.11C44.2107 23.485 44 23.9937 44 24.5242C44 25.0546 44.2107 25.5633 44.5858 25.9384C44.9609 26.3135 45.4696 26.5242 46 26.5242C47.5913 26.5242 49.1174 27.1563 50.2426 28.2815C51.3679 29.4067 52 30.9329 52 32.5242C51.9972 33.5746 51.7186 34.606 51.1921 35.515C50.6657 36.424 49.9097 37.1789 49 37.7042C48.7035 37.8752 48.4558 38.1195 48.2807 38.4137C48.1056 38.7078 48.009 39.042 48 39.3842C47.9916 39.7237 48.0699 40.0598 48.2273 40.3607C48.3848 40.6616 48.6163 40.9175 48.9 41.1042L49.68 41.6242L49.94 41.7642C52.3508 42.9076 54.3846 44.7162 55.802 46.9768C57.2193 49.2374 57.9611 51.856 57.94 54.5242C57.94 55.0546 58.1507 55.5633 58.5258 55.9384C58.9009 56.3135 59.4096 56.5242 59.94 56.5242C60.4704 56.5242 60.9791 56.3135 61.3542 55.9384C61.7293 55.5633 61.94 55.0546 61.94 54.5242C61.9563 51.455 61.1876 48.4327 59.7069 45.7443C58.2262 43.0559 56.0827 40.7908 53.48 39.1642Z" fill="white"/>
</svg>
