<svg width="80" height="80" viewBox="0 0 80 80" fill="none" xmlns="http://www.w3.org/2000/svg">
<circle cx="40" cy="40" r="40" fill="#4174CB"/>
<path d="M61.86 38.8L61.74 38.58C61.7056 38.481 61.6585 38.3869 61.6 38.3L56.8 31.9C56.2411 31.1548 55.5164 30.55 54.6833 30.1334C53.8501 29.7169 52.9315 29.5 52 29.5H48V27.5C48 25.9087 47.3679 24.3826 46.2426 23.2574C45.1174 22.1321 43.5913 21.5 42 21.5H24C22.4087 21.5 20.8826 22.1321 19.7574 23.2574C18.6321 24.3826 18 25.9087 18 27.5V49.5C18 50.0304 18.2107 50.5391 18.5858 50.9142C18.9609 51.2893 19.4696 51.5 20 51.5H22C22 53.0913 22.6321 54.6174 23.7574 55.7426C24.8826 56.8679 26.4087 57.5 28 57.5C29.5913 57.5 31.1174 56.8679 32.2426 55.7426C33.3679 54.6174 34 53.0913 34 51.5H46C46 53.0913 46.6321 54.6174 47.7574 55.7426C48.8826 56.8679 50.4087 57.5 52 57.5C53.5913 57.5 55.1174 56.8679 56.2426 55.7426C57.3679 54.6174 58 53.0913 58 51.5H60C60.5304 51.5 61.0391 51.2893 61.4142 50.9142C61.7893 50.5391 62 50.0304 62 49.5V39.5C61.9957 39.2602 61.9483 39.023 61.86 38.8ZM28 53.5C27.6044 53.5 27.2178 53.3827 26.8889 53.1629C26.56 52.9432 26.3036 52.6308 26.1522 52.2654C26.0009 51.8999 25.9613 51.4978 26.0384 51.1098C26.1156 50.7219 26.3061 50.3655 26.5858 50.0858C26.8655 49.8061 27.2219 49.6156 27.6098 49.5384C27.9978 49.4613 28.3999 49.5009 28.7654 49.6522C29.1308 49.8036 29.4432 50.06 29.6629 50.3889C29.8827 50.7178 30 51.1044 30 51.5C30 52.0304 29.7893 52.5391 29.4142 52.9142C29.0391 53.2893 28.5304 53.5 28 53.5ZM44 47.5H32.44C31.8776 46.8813 31.1922 46.3869 30.4276 46.0487C29.663 45.7104 28.8361 45.5356 28 45.5356C27.1639 45.5356 26.337 45.7104 25.5724 46.0487C24.8078 46.3869 24.1224 46.8813 23.56 47.5H22V27.5C22 26.9696 22.2107 26.4609 22.5858 26.0858C22.9609 25.7107 23.4696 25.5 24 25.5H42C42.5304 25.5 43.0391 25.7107 43.4142 26.0858C43.7893 26.4609 44 26.9696 44 27.5V47.5ZM48 33.5H52C52.3105 33.5 52.6167 33.5723 52.8944 33.7111C53.1721 33.85 53.4137 34.0516 53.6 34.3L56 37.5H48V33.5ZM52 53.5C51.6044 53.5 51.2178 53.3827 50.8889 53.1629C50.56 52.9432 50.3036 52.6308 50.1522 52.2654C50.0009 51.8999 49.9613 51.4978 50.0384 51.1098C50.1156 50.7219 50.3061 50.3655 50.5858 50.0858C50.8655 49.8061 51.2219 49.6156 51.6098 49.5384C51.9978 49.4613 52.3999 49.5009 52.7654 49.6522C53.1308 49.8036 53.4432 50.06 53.6629 50.3889C53.8827 50.7178 54 51.1044 54 51.5C54 52.0304 53.7893 52.5391 53.4142 52.9142C53.0391 53.2893 52.5304 53.5 52 53.5ZM58 47.5H56.44C55.3758 46.3281 53.8915 45.6243 52.3106 45.5418C50.7297 45.4594 49.1803 46.0051 48 47.06V41.5H58V47.5Z" fill="white"/>
</svg>
