<?xml version="1.0" encoding="iso-8859-1"?>
<!-- Uploaded to: SVG Repo, www.svgrepo.com, Generator: SVG Repo Mixer Tools -->
<svg version="1.1" id="Layer_1" xmlns="http://www.w3.org/2000/svg" xmlns:xlink="http://www.w3.org/1999/xlink" 
	 viewBox="0 0 512.001 512.001" xml:space="preserve">
<path style="fill:#FF6A2A;" d="M40.219,471.783L40.219,471.783c-43.111-43.111-43.111-113.008,0-156.118l275.5-275.501
	c43.111-43.111,113.008-43.111,156.118,0l0,0c43.111,43.111,43.111,113.008,0,156.118l-275.5,275.501
	C153.226,514.893,83.329,514.893,40.219,471.783z"/>
<path style="fill:#FFFFFF;" d="M471.838,40.163L471.838,40.163c-43.111-43.111-113.008-43.111-156.118,0l-15.383,15.383
	c43.111-43.111,113.008-43.111,156.118,0l0,0c43.111,43.111,43.111,113.008,0,156.118l15.383-15.383
	C514.949,153.171,514.949,83.274,471.838,40.163z"/>
<path style="fill:#CD5421;" d="M196.342,471.785c-43.109,43.109-113.017,43.109-156.126,0s-43.109-113.016,0-156.126
	L196.342,471.785z"/>
<g>
	
		<rect x="319.014" y="132.007" transform="matrix(-0.7071 -0.7071 0.7071 -0.7071 466.5079 530.8382)" style="fill:#F9D85C;" width="48.359" height="73.59"/>
	
		<rect x="282.818" y="97.923" transform="matrix(-0.7071 -0.7071 0.7071 -0.7071 421.894 423.1653)" style="fill:#F9D85C;" width="31.539" height="52.565"/>
</g>
<rect x="269.811" y="129.334" transform="matrix(0.7071 0.7071 -0.7071 0.7071 180.6728 -161.7451)" style="fill:#DDB92E;" width="31.539" height="15.769"/>
<rect x="295.829" y="103.314" transform="matrix(0.7071 0.7071 -0.7071 0.7071 169.8947 -187.7637)" style="fill:#FFFFFF;" width="31.539" height="15.769"/>
<rect x="372.021" y="187.131" transform="matrix(-0.7071 -0.7071 0.7071 -0.7071 511.0934 638.5291)" style="fill:#F9D85C;" width="31.539" height="52.565"/>
<rect x="385.032" y="192.533" transform="matrix(0.7071 0.7071 -0.7071 0.7071 259.1089 -224.7082)" style="fill:#FFFFFF;" width="31.539" height="15.769"/>
<rect x="359.006" y="218.546" transform="matrix(0.7071 0.7071 -0.7071 0.7071 269.8796 -198.6864)" style="fill:#DDB92E;" width="31.539" height="15.769"/>
<rect x="295.886" y="158.289" transform="matrix(-0.7071 -0.7071 0.7071 -0.7071 466.5079 530.8382)" style="fill:#FFFFFF;" width="94.616" height="21.026"/>
<g>
	
		<rect x="144.692" y="306.339" transform="matrix(-0.7071 -0.7071 0.7071 -0.7071 45.6496 705.1776)" style="fill:#F9D85C;" width="48.359" height="73.59"/>
	
		<rect x="108.496" y="272.244" transform="matrix(-0.7071 -0.7071 0.7071 -0.7071 1.044 597.4846)" style="fill:#F9D85C;" width="31.539" height="52.565"/>
</g>
<rect x="95.481" y="303.654" transform="matrix(0.7071 0.7071 -0.7071 0.7071 252.8754 12.5815)" style="fill:#DDB92E;" width="31.539" height="15.769"/>
<rect x="121.506" y="277.641" transform="matrix(0.7071 0.7071 -0.7071 0.7071 242.1044 -13.4395)" style="fill:#FFFFFF;" width="31.539" height="15.769"/>
<rect x="197.702" y="361.452" transform="matrix(-0.7071 -0.7071 0.7071 -0.7071 90.2485 812.8508)" style="fill:#F9D85C;" width="31.539" height="52.565"/>
<rect x="210.7" y="366.842" transform="matrix(0.7071 0.7071 -0.7071 0.7071 331.3034 -50.3832)" style="fill:#FFFFFF;" width="31.539" height="15.769"/>
<rect x="184.687" y="392.862" transform="matrix(0.7071 0.7071 -0.7071 0.7071 342.0832 -24.3683)" style="fill:#DDB92E;" width="31.539" height="15.769"/>
<rect x="121.564" y="332.62" transform="matrix(-0.7071 -0.7071 0.7071 -0.7071 45.6503 705.1758)" style="fill:#FFFFFF;" width="94.616" height="21.026"/>
<path d="M477.413,34.588c-46.117-46.116-121.152-46.116-167.27,0l-275.501,275.5C12.303,332.428,0,362.13,0,393.723
	c0,31.593,12.303,61.295,34.643,83.634C56.983,499.697,86.684,512,118.278,512s61.295-12.303,83.635-34.643l275.501-275.501
	C523.53,155.741,523.53,80.703,477.413,34.588z M466.262,190.706L190.761,466.207c-19.361,19.362-45.102,30.024-72.483,30.024
	s-53.122-10.662-72.483-30.024c-19.362-19.362-30.025-45.104-30.025-72.484c0-27.381,10.663-53.123,30.025-72.484l275.5-275.501
	c19.361-19.361,45.102-30.023,72.483-30.023c27.381,0,53.122,10.662,72.483,30.024C506.23,85.706,506.23,150.739,466.262,190.706z"
	/>
<path d="M395.227,172.528l-11.151,11.15l-5.206-5.206l18.588-18.578l-45.354-45.352l-18.577,18.587l-5.205-5.205l11.15-11.15
	L306.02,83.322l-18.584,18.585l-5.575-5.575l-11.151,11.15l5.575,5.575l-18.585,18.584l33.452,33.451l11.151-11.151l5.206,5.207
	l-18.584,18.585l45.338,45.34l18.585-18.585l5.208,5.208l-11.15,11.15l33.451,33.452l18.584-18.584l5.575,5.575l11.151-11.15
	l-5.575-5.576l18.585-18.585L395.227,172.528z M280.002,131.642l26.019-26.019l11.151,11.151l-26.018,26.019L280.002,131.642z
	 M313.454,142.793l3.716-3.716l55.754,55.754l-3.716,3.716L313.454,142.793z M352.107,136.847l23.045,23.045l-7.434,7.43
	l-23.041-23.041L352.107,136.847z M334.265,200.771l-23.037-23.037l7.434-7.434l23.037,23.037L334.265,200.771z M369.209,220.848
	l26.018-26.019l11.151,11.151l-26.019,26.019L369.209,220.848z"/>
<path d="M220.903,346.852l-11.15,11.15l-5.208-5.208l18.583-18.584l-45.338-45.34l-18.584,18.584l-5.207-5.207l11.15-11.15
	l-33.451-33.452l-18.584,18.585l-5.575-5.575l-11.151,11.151l5.575,5.575l-18.584,18.584l33.451,33.452l11.151-11.151l5.205,5.205
	l-18.588,18.578l45.354,45.352l18.578-18.588l5.206,5.206l-11.151,11.151l33.452,33.451l18.584-18.584l5.575,5.575l11.151-11.151
	l-5.575-5.576l18.584-18.584L220.903,346.852z M105.679,305.965l26.019-26.019l11.151,11.151l-26.019,26.019L105.679,305.965z
	 M177.789,311.173l23.037,23.037l-7.433,7.433l-23.037-23.037L177.789,311.173z M159.947,375.097l-23.045-23.045l7.434-7.431
	l23.04,23.041L159.947,375.097z M139.131,317.116l3.716-3.716l55.754,55.754l-3.716,3.716L139.131,317.116z M194.884,395.172
	L194.884,395.172h0.001l26.018-26.019l11.151,11.151l-26.019,26.019L194.884,395.172z"/>
<rect x="99.251" y="308.968" transform="matrix(-0.7071 0.7071 -0.7071 -0.7071 453.4011 577.3124)" width="15.769" height="147.181"/>
<rect x="168.003" y="443.45" transform="matrix(0.7071 0.7071 -0.7071 0.7071 370.658 7.8218)" width="15.769" height="15.769"/>
</svg>